<?xml version="1.0" encoding="UTF-8"?>
<svg width="21px" height="21px" viewBox="0 0 21 21" version="1.1" xmlns="http://www.w3.org/2000/svg" xmlns:xlink="http://www.w3.org/1999/xlink">
    <!-- Generator: Sketch 53.1 (72631) - https://sketchapp.com -->
    <title>Group 6</title>
    <desc>Created with Sketch.</desc>
    <defs>
        <polyline id="path-1" points="0 0.000161538462 20.9998385 0.000161538462 20.9998385 21 0 21"></polyline>
    </defs>
    <g id="semboller" stroke="none" stroke-width="1" fill="none" fill-rule="evenodd">
        <g id="foother" transform="translate(-184.000000, -227.000000)">
            <g id="Group-6" transform="translate(184.000000, 227.000000)">
                <g id="Group-3">
                    <mask id="mask-2" fill="white">
                        <use xlink:href="#path-1"></use>
                    </mask>
                    <g id="Clip-2"></g>
                    <path d="M10.4998385,1.61554615 C15.3984923,1.61554615 19.3844538,5.60150769 19.3844538,10.5001615 C19.3844538,15.3980077 15.3984923,19.3847769 10.4998385,19.3847769 C5.60118462,19.3847769 1.61522308,15.3980077 1.61522308,10.5001615 C1.61522308,5.60150769 5.60118462,1.61554615 10.4998385,1.61554615 M10.4998385,0.000161538462 C4.70060769,0.000161538462 -0.000161538462,4.70093077 -0.000161538462,10.5001615 C-0.000161538462,16.2993923 4.70060769,21.0001615 10.4998385,21.0001615 C16.2990692,21.0001615 20.9998385,16.2993923 20.9998385,10.5001615 C20.9998385,4.70093077 16.2990692,0.000161538462 10.4998385,0.000161538462" id="Fill-1" fill="#FFFFFF" mask="url(#mask-2)"></path>
                </g>
                <path d="M11.7975393,6.76 L12.9704716,6.76 L12.9704716,5 L11.193028,5 C10.169378,5 8.83732057,5.61757143 8.83732057,7.41371429 L8.83732057,8.96 L7,8.96 L7,10.94 L8.83732057,10.94 L8.83732057,16 L10.9026658,16 L10.9026658,10.94 L12.7022556,10.94 L13,8.96 L10.9026658,8.96 L10.9026658,7.71385714 C10.9026658,7.07192857 11.228298,6.76078571 11.7967191,6.76078571" id="Fill-4" fill="#FFFFFF"></path>
            </g>
        </g>
    </g>
</svg>