<?xml version="1.0" encoding="UTF-8"?>
<svg width="21px" height="21px" viewBox="0 0 21 21" version="1.1" xmlns="http://www.w3.org/2000/svg" xmlns:xlink="http://www.w3.org/1999/xlink">
    <!-- Generator: Sketch 53.1 (72631) - https://sketchapp.com -->
    <title>Group 10</title>
    <desc>Created with Sketch.</desc>
    <defs>
        <polygon id="path-1" points="0.000161538462 0 21 0 21 20.9999192 0.000161538462 20.9999192"></polygon>
    </defs>
    <g id="semboller" stroke="none" stroke-width="1" fill="none" fill-rule="evenodd">
        <g id="foother" transform="translate(-278.000000, -228.000000)">
            <g id="Group-10" transform="translate(278.000000, 228.000000)">
                <g id="Group-3">
                    <mask id="mask-2" fill="white">
                        <use xlink:href="#path-1"></use>
                    </mask>
                    <g id="Clip-2"></g>
                    <path d="M10.5001615,1.61530385 C15.3988154,1.61530385 19.3847769,5.60126538 19.3847769,10.4999192 C19.3847769,15.3985731 15.3988154,19.3845346 10.5001615,19.3845346 C5.60150769,19.3845346 1.61554615,15.3985731 1.61554615,10.4999192 C1.61554615,5.60126538 5.60150769,1.61530385 10.5001615,1.61530385 M10.5001615,-8.07692308e-05 C4.70093077,-8.07692308e-05 0.000161538462,4.70068846 0.000161538462,10.4999192 C0.000161538462,16.29915 4.70093077,20.9999192 10.5001615,20.9999192 C16.2993923,20.9999192 21.0001615,16.29915 21.0001615,10.4999192 C21.0001615,4.70068846 16.2993923,-8.07692308e-05 10.5001615,-8.07692308e-05" id="Fill-1" fill="#FFFFFF" mask="url(#mask-2)"></path>
                </g>
                <path d="M7.62972399,6.63524416 C7.07940552,6.63524416 6.63269639,7.08195329 6.63269639,7.63227176 L6.63269639,14.370276 C6.63269639,14.9214437 7.07940552,15.3673036 7.62972399,15.3673036 L14.370276,15.3673036 C14.9205945,15.3673036 15.3673036,14.9214437 15.3673036,14.370276 L15.3673036,7.62972399 C15.3673036,7.07855626 14.9205945,6.63269639 14.370276,6.63269639 L7.62972399,6.63524416 Z M14.370276,16 L7.62972399,16 C6.73036093,15.9991507 6.00169851,15.2704883 6,14.370276 L6,7.62972399 C6.00169851,6.73036093 6.73036093,6.00084926 7.62972399,6 L14.370276,6 C15.2704883,6.00084926 15.9991507,6.73036093 16,7.62972399 L16,14.370276 C15.9991507,15.2704883 15.2704883,15.9991507 14.370276,16 L14.370276,16 Z" id="Fill-4" fill="#FFFFFF"></path>
                <path d="M11,10.6016556 C10.2272911,10.6016556 9.60153411,11.2275389 9.60153411,11.9995962 C9.60153411,12.7724611 10.2272911,13.3983444 11,13.3983444 C11.7719015,13.3983444 12.3976585,12.7724611 12.3976585,11.9995962 C12.396851,11.2275389 11.7719015,10.6016556 11,10.6016556 M11,14 C9.89543803,14 9,13.1051888 9,11.9995962 C9,10.8956188 9.89543803,10 11,10 C12.104562,10 13,10.8956188 13,11.9995962 C12.9991926,13.1043812 12.1037545,14 11,14" id="Fill-6" fill="#FFFFFF"></path>
                <path d="M14,7.49961686 C14,7.77624521 13.7756508,8 13.5,8 C13.2243492,8 13,7.77624521 13,7.49961686 C13,7.22375479 13.2243492,7 13.5,7 C13.7756508,7 14,7.22375479 14,7.49961686 Z" id="Fill-8" fill="#FFFFFF"></path>
            </g>
        </g>
    </g>
</svg>