<?xml version="1.0" encoding="UTF-8"?>
<svg width="21px" height="21px" viewBox="0 0 21 21" version="1.1" xmlns="http://www.w3.org/2000/svg" xmlns:xlink="http://www.w3.org/1999/xlink">
    <!-- Generator: Sketch 53.1 (72631) - https://sketchapp.com -->
    <title>Group 10</title>
    <desc>Created with Sketch.</desc>
    <defs>
        <polygon id="path-1" points="0 0 21 0 21 20.9999192 0 20.9999192"></polygon>
    </defs>
    <g id="semboller" stroke="none" stroke-width="1" fill="none" fill-rule="evenodd">
        <g id="foother" transform="translate(-231.000000, -228.000000)">
            <g id="Group-10" transform="translate(231.000000, 228.000000)">
                <g id="Group-3">
                    <mask id="mask-2" fill="white">
                        <use xlink:href="#path-1"></use>
                    </mask>
                    <g id="Clip-2"></g>
                    <path d="M10.5,1.61530385 C15.3986538,1.61530385 19.3846154,5.60126538 19.3846154,10.4999192 C19.3846154,15.3985731 15.3986538,19.3845346 10.5,19.3845346 C5.60134615,19.3845346 1.61538462,15.3985731 1.61538462,10.4999192 C1.61538462,5.60126538 5.60134615,1.61530385 10.5,1.61530385 M10.5,-8.07692308e-05 C4.70076923,-8.07692308e-05 0,4.70068846 0,10.4999192 C0,16.29915 4.70076923,20.9999192 10.5,20.9999192 C16.2992308,20.9999192 21,16.29915 21,10.4999192 C21,4.70068846 16.2992308,-8.07692308e-05 10.5,-8.07692308e-05" id="Fill-1" fill="#FFFFFF" mask="url(#mask-2)"></path>
                </g>
                <path d="M12.6572792,9.04625562 C13.720676,8.84547696 14.6918849,9.28959936 14.9304416,10.5496863 C14.9765356,10.7922269 14.9910916,11.0427987 14.9935176,11.2893549 C15.0016043,12.1270034 14.9935176,12.9654551 14.9999869,13.8039069 C15.0007956,13.9484675 14.9644056,14.0030793 14.8091415,13.9998668 C14.3716528,13.9894263 13.9333554,13.9910326 13.4958666,13.9990637 C13.3559673,14.0014731 13.3187686,13.9540893 13.3195773,13.8207723 C13.3228119,12.9718801 13.3228119,12.123791 13.3171513,11.2748988 C13.3163426,11.1375662 13.2904653,10.9970211 13.2556926,10.8637041 C13.0818292,10.1947096 12.3079351,10.204347 11.9666777,10.5215772 C11.7362077,10.7352057 11.6545323,11.0018398 11.6545323,11.3030078 C11.6545323,12.1406564 11.6512976,12.9791081 11.657767,13.8175598 C11.6585756,13.958908 11.6197596,14.0022762 11.4758169,13.9990637 C11.0383282,13.9902295 10.6000308,13.9926388 10.162542,13.9982606 C10.0444767,13.9998668 10,13.9709547 10,13.8432595 C10.0040433,12.3173416 10.0040433,10.7914238 10.0008087,9.26470281 C10.0008087,9.14102315 10.0404333,9.10167053 10.1609247,9.10247365 C10.6089261,9.10648922 11.0569275,9.1056861 11.5049289,9.10327676 C11.6181423,9.10167053 11.6634276,9.14022004 11.6561496,9.25667166 C11.648063,9.40605099 11.6545323,9.55543031 11.6545323,9.70561275 C11.9230097,9.37472952 12.2400071,9.12496086 12.6572792,9.04625562 Z" id="Fill-4" fill="#FFFFFF"></path>
                <path d="M7.99613823,11.4953845 C7.99613823,12.2618418 7.99132826,13.0274795 7.99998621,13.7931171 C8.0009482,13.951327 7.95188649,14.0046101 7.75948763,13.9996917 C7.24578265,13.9890351 6.73111569,13.9914943 6.21644872,13.998872 C6.05868165,14.0013312 6,13.9660823 6,13.8226278 C6.00577197,12.2749577 6.00480997,10.7272876 6,9.17961752 C6,9.03616293 6.06349163,8.99927461 6.21933471,9.00091409 C6.73400167,9.00583253 7.24866864,9.00747201 7.76237361,9.00009435 C7.93745658,8.99763513 8.0009482,9.04272086 7.99902421,9.19765181 C7.99229025,9.96328945 7.99613823,10.7297468 7.99613823,11.4953845" id="Fill-6" fill="#FFFFFF"></path>
                <path d="M8,7.00837309 C8,7.57632589 7.57644029,7.99623853 6.99783521,7.99996281 C6.43308893,8.00461816 6.00173364,7.57167054 6.00000129,7.00092453 C5.99913512,6.4245921 6.4339551,5.99629982 7.01429254,6.0000241 C7.58856674,6.00467945 8,6.42552317 8,7.00837309" id="Fill-8" fill="#FFFFFF"></path>
            </g>
        </g>
    </g>
</svg>