<?xml version="1.0" encoding="UTF-8"?>
<svg width="422px" height="108px" viewBox="0 0 422 108" version="1.1" xmlns="http://www.w3.org/2000/svg" xmlns:xlink="http://www.w3.org/1999/xlink">
    <!-- Generator: Sketch 51 (57462) - http://www.bohemiancoding.com/sketch -->
    <title>Group</title>
    <desc>Created with Sketch.</desc>
    <defs>
        <polygon id="path-1" points="41 0 414 0 346 100 41 100"></polygon>
        <filter x="-1.3%" y="-5.0%" width="103.8%" height="114.0%" filterUnits="objectBoundingBox" id="filter-2">
            <feOffset dx="2" dy="2" in="SourceAlpha" result="shadowOffsetOuter1"></feOffset>
            <feGaussianBlur stdDeviation="2" in="shadowOffsetOuter1" result="shadowBlurOuter1"></feGaussianBlur>
            <feColorMatrix values="0 0 0 0 0   0 0 0 0 0   0 0 0 0 0  0 0 0 0.5 0" type="matrix" in="shadowBlurOuter1"></feColorMatrix>
        </filter>
        <polygon id="path-3" points="27 0 400 0 332 100 27 100"></polygon>
        <filter x="-1.3%" y="-5.0%" width="103.8%" height="114.0%" filterUnits="objectBoundingBox" id="filter-4">
            <feOffset dx="2" dy="2" in="SourceAlpha" result="shadowOffsetOuter1"></feOffset>
            <feGaussianBlur stdDeviation="2" in="shadowOffsetOuter1" result="shadowBlurOuter1"></feGaussianBlur>
            <feColorMatrix values="0 0 0 0 0   0 0 0 0 0   0 0 0 0 0  0 0 0 0.5 0" type="matrix" in="shadowBlurOuter1"></feColorMatrix>
        </filter>
        <polygon id="path-5" points="13 0 386 0 318 100 13 100"></polygon>
        <filter x="-1.3%" y="-5.0%" width="103.8%" height="114.0%" filterUnits="objectBoundingBox" id="filter-6">
            <feOffset dx="2" dy="2" in="SourceAlpha" result="shadowOffsetOuter1"></feOffset>
            <feGaussianBlur stdDeviation="2" in="shadowOffsetOuter1" result="shadowBlurOuter1"></feGaussianBlur>
            <feColorMatrix values="0 0 0 0 0   0 0 0 0 0   0 0 0 0 0  0 0 0 0.5 0" type="matrix" in="shadowBlurOuter1"></feColorMatrix>
        </filter>
        <polygon id="path-7" points="0 0 373 0 305 100 0 100"></polygon>
        <filter x="-1.3%" y="-5.0%" width="103.8%" height="114.0%" filterUnits="objectBoundingBox" id="filter-8">
            <feOffset dx="2" dy="2" in="SourceAlpha" result="shadowOffsetOuter1"></feOffset>
            <feGaussianBlur stdDeviation="2" in="shadowOffsetOuter1" result="shadowBlurOuter1"></feGaussianBlur>
            <feColorMatrix values="0 0 0 0 0   0 0 0 0 0   0 0 0 0 0  0 0 0 0.5 0" type="matrix" in="shadowBlurOuter1"></feColorMatrix>
        </filter>
        <polygon id="path-9" points="0 69.3396226 224.632642 69.3396226 224.632642 0.11754717 0 0.11754717"></polygon>
    </defs>
    <g id="Symbols" stroke="none" stroke-width="1" fill="none" fill-rule="evenodd">
        <g id="header" transform="translate(2.000000, 2.000000)">
            <g id="header-copy-4">
                <g id="Group">
                    <g id="Rectangle-Copy">
                        <use fill="black" fill-opacity="1" filter="url(#filter-2)" xlink:href="#path-1"></use>
                        <use fill="#AFC90C" fill-rule="evenodd" xlink:href="#path-1"></use>
                    </g>
                    <g id="Rectangle-Copy">
                        <use fill="black" fill-opacity="1" filter="url(#filter-4)" xlink:href="#path-3"></use>
                        <use fill="#F49C00" fill-rule="evenodd" xlink:href="#path-3"></use>
                    </g>
                    <g id="Rectangle-Copy">
                        <use fill="black" fill-opacity="1" filter="url(#filter-6)" xlink:href="#path-5"></use>
                        <use fill="#1EB9DE" fill-rule="evenodd" xlink:href="#path-5"></use>
                    </g>
                    <g id="Rectangle">
                        <use fill="black" fill-opacity="1" filter="url(#filter-8)" xlink:href="#path-7"></use>
                        <use fill="#FFFFFF" fill-rule="evenodd" xlink:href="#path-7"></use>
                    </g>
                    <g id="Page-1" transform="translate(57.000000, 15.000000)">
                        <polygon id="Fill-1" fill="#1EB9DE" points="45.1484151 0.660311321 -0.000264150943 23.7926698 21.0360566 34.5713491 66.1847358 11.4376698"></polygon>
                        <polygon id="Fill-2" fill="#AFC90C" points="21.0360566 58.4069434 11.1984151 53.3649623 0.000396226415 59.1036415 21.0360566 69.8823208 66.1847358 46.751283 54.9853962 41.0119434"></polygon>
                        <polygon id="Fill-3" fill="#F49C00" points="21.0360566 40.7508962 11.1984151 35.7102358 0.000396226415 41.4475943 21.0360566 52.2275943 66.1847358 29.0978774 54.9853962 23.3558962"></polygon>
                        <path d="M117.923519,14.9356887 L117.878613,12.4473868 L125.619557,12.4473868 L137.364368,35.5586132 L149.104557,12.4473868 L156.848142,12.4473868 L156.848142,45.2126698 L148.918991,45.2126698 L148.918991,30.3614434 L141.391349,45.2166321 L133.338047,45.2166321 L132.015972,42.5916321 L125.807764,30.3812547 L117.923519,14.9356887 Z M125.807764,45.2126698 L117.878613,45.2126698 L117.909651,24.7885189 L125.807764,40.2915377 L125.807764,45.2126698 Z" id="Fill-4" fill="#263272"></path>
                        <path d="M74.6642453,45.2133962 L113.636415,45.2133962 L113.636415,37.2835849 L74.6642453,37.2835849 L74.6642453,45.2133962 Z M74.6649057,20.3799057 L74.6649057,12.4474528 L113.636415,12.4474528 L113.636415,19.9116981 L95.4199057,32.7956604 L81.5440566,32.7956604 L98.7891509,20.3799057 L74.6649057,20.3799057 Z" id="Fill-5" fill="#263272"></path>
                        <path d="M169.021472,20.3799057 L169.021472,24.8645283 L169.021472,32.7969811 L169.021472,45.2133962 L161.09166,45.2133962 L161.09166,12.4474528 L200.061849,12.4474528 L200.061849,20.3799057 L169.021472,20.3799057 Z M173.506094,32.7969811 L200.061849,32.7969811 L200.061849,24.8658491 L173.506094,24.8658491 L173.506094,32.7969811 Z" id="Fill-6" fill="#263272"></path>
                        <g id="Group-26" transform="translate(0.000000, 0.542830)">
                            <path d="M74.6652358,57.424434 L74.6652358,50.5175472 L77.601934,50.5175472 C78.3415566,50.5175472 78.8784434,50.5796226 79.2152358,50.704434 C79.548066,50.8299057 79.8175,51.0504717 80.0175943,51.3648113 C80.2183491,51.6837736 80.3200472,52.0456604 80.3200472,52.4550943 C80.3200472,52.9734906 80.1668396,53.4014151 79.8643868,53.7395283 C79.5606132,54.0776415 79.106934,54.2876415 78.5020283,54.3767925 C78.8031604,54.5517925 79.0501415,54.7466038 79.2456132,54.9572642 C79.4404245,55.1659434 79.7052358,55.539717 80.0367453,56.0792453 L80.8787264,57.424434 L79.2112736,57.424434 L78.2121226,55.9181132 C77.8515566,55.3812264 77.6058962,55.0457547 77.4731604,54.9064151 C77.3410849,54.7664151 77.2010849,54.6693396 77.0525,54.6178302 C76.9052358,54.5689623 76.6681604,54.540566 76.347217,54.540566 L76.0645755,54.540566 L76.0645755,57.424434 L74.6652358,57.424434 Z M76.0645755,53.4403774 L77.0967453,53.4403774 C77.7657075,53.4403774 78.183066,53.4146226 78.3494811,53.3578302 C78.5158962,53.299717 78.6453302,53.2013208 78.7410849,53.0633019 C78.8341981,52.9259434 78.8824057,52.7529245 78.8824057,52.5449057 C78.8824057,52.3117925 78.8183491,52.1249057 78.6961792,51.980283 C78.5713679,51.8369811 78.3970283,51.7478302 78.1705189,51.7095283 C78.056934,51.6936792 77.7168396,51.6850943 77.152217,51.6850943 L76.0645755,51.6850943 L76.0645755,53.4403774 Z" id="Fill-7" fill="#F49C00"></path>
                            <path d="M91.4255472,57.424434 L89.9198868,57.424434 L89.3222453,55.8533962 L86.5506415,55.8533962 L85.977434,57.424434 L84.4981887,57.424434 L87.1819623,50.5175472 L88.6598868,50.5175472 L91.4255472,57.424434 Z M88.8698868,54.6865094 L87.9083774,52.1295283 L86.9772453,54.6865094 L88.8698868,54.6865094 Z" id="Fill-9" fill="#F49C00"></path>
                            <polygon id="Fill-11" fill="#F49C00" points="95.7399245 57.424434 95.7399245 50.5175472 100.486057 50.5175472 100.486057 51.6850943 97.1379434 51.6850943 97.1379434 53.3267925 100.033698 53.3267925 100.033698 54.4916981 97.1379434 54.4916981 97.1379434 57.424434"></polygon>
                            <path d="M111.074349,55.1866132 L112.434066,55.0525566 C112.517934,55.5062358 112.683028,55.8417075 112.93067,56.0543491 C113.180953,56.2676509 113.515104,56.3746321 113.939066,56.3746321 C114.385481,56.3746321 114.723594,56.2788774 114.952085,56.0893491 C115.177274,55.8985 115.292179,55.677934 115.292179,55.4223679 C115.292179,55.2599151 115.244632,55.1205755 115.148877,55.0076509 C115.053783,54.8927453 114.887368,54.7930283 114.648972,54.7078396 C114.486519,54.6523679 114.116047,54.5493491 113.536896,54.4047264 C112.79133,54.2191604 112.267651,53.9906698 111.9685,53.7199151 C111.546519,53.3395377 111.333877,52.8752925 111.333877,52.3258585 C111.333877,51.9738774 111.435575,51.6436887 111.633028,51.3352925 C111.831142,51.0295377 112.117745,50.7964245 112.491519,50.6346321 C112.867274,50.4748208 113.318972,50.3922736 113.849255,50.3922736 C114.713028,50.3922736 115.3635,50.5857642 115.799349,50.968783 C116.23784,51.3531226 116.467651,51.8655755 116.488123,52.5074623 L115.087462,52.5543491 C115.03067,52.1970849 114.902557,51.9401981 114.707745,51.7856698 C114.513594,51.6291604 114.220387,51.5505755 113.830764,51.5505755 C113.428594,51.5505755 113.113594,51.6331226 112.886425,51.8021792 C112.740481,51.9078396 112.665858,52.0524623 112.665858,52.2327453 C112.665858,52.3951981 112.734538,52.5358585 112.873877,52.6520849 C113.048217,52.8006698 113.476142,52.9565189 114.153689,53.1163302 C114.829255,53.2761415 115.329821,53.4425566 115.653406,53.6142547 C115.976991,53.7859528 116.232557,54.019066 116.415481,54.3162358 C116.599066,54.614066 116.688877,54.9805755 116.688877,55.4164245 C116.688877,55.8119906 116.580575,56.183783 116.36133,56.5278396 C116.142085,56.8751981 115.830387,57.1301038 115.427557,57.2991604 C115.025387,57.4668962 114.524821,57.5507642 113.926519,57.5507642 C113.052179,57.5507642 112.381236,57.3506698 111.913028,56.9471792 C111.444821,56.5450094 111.166142,55.9566132 111.074349,55.1866132" id="Fill-13" fill="#F49C00"></path>
                            <mask id="mask-10" fill="white">
                                <use xlink:href="#path-9"></use>
                            </mask>
                            <g id="Clip-16"></g>
                            <path d="M121.383962,51.6864151 L122.781981,51.6864151 L122.781981,50.5175472 L121.383962,50.5175472 L121.383962,51.6864151 Z M121.383962,57.424434 L122.781981,57.424434 L122.781981,52.5878302 L121.383962,52.5878302 L121.383962,57.424434 Z" id="Fill-15" fill="#F49C00" mask="url(#mask-10)"></path>
                            <path d="M127.301604,55.1866132 L128.663962,55.0525566 C128.745189,55.5062358 128.911604,55.8417075 129.159245,56.0543491 C129.408868,56.2676509 129.74434,56.3746321 130.167642,56.3746321 C130.615377,56.3746321 130.951509,56.2788774 131.178679,56.0893491 C131.405849,55.8985 131.522075,55.677934 131.522075,55.4223679 C131.522075,55.2599151 131.472547,55.1205755 131.377453,55.0076509 C131.281698,54.8927453 131.115283,54.7930283 130.876887,54.7078396 C130.711792,54.6523679 130.343962,54.5493491 129.764811,54.4047264 C129.021226,54.2191604 128.498208,53.9906698 128.197736,53.7199151 C127.775094,53.3395377 127.562453,52.8752925 127.562453,52.3258585 C127.562453,51.9738774 127.66283,51.6436887 127.862925,51.3352925 C128.062358,51.0295377 128.346321,50.7964245 128.720094,50.6346321 C129.095849,50.4748208 129.545566,50.3922736 130.07717,50.3922736 C130.938962,50.3922736 131.591415,50.5857642 132.029906,50.968783 C132.465755,51.3531226 132.695566,51.8655755 132.717358,52.5074623 L131.318019,52.5543491 C131.258585,52.1970849 131.129811,51.9401981 130.936321,51.7856698 C130.741509,51.6291604 130.448962,51.5505755 130.06066,51.5505755 C129.659151,51.5505755 129.34217,51.6331226 129.115,51.8021792 C128.967736,51.9078396 128.895755,52.0524623 128.895755,52.2327453 C128.895755,52.3951981 128.965755,52.5358585 129.102453,52.6520849 C129.277453,52.8006698 129.703396,52.9565189 130.381604,53.1163302 C131.058491,53.2761415 131.557736,53.4425566 131.882642,53.6142547 C132.208208,53.7859528 132.460472,54.019066 132.644057,54.3162358 C132.828302,54.614066 132.920094,54.9805755 132.920094,55.4164245 C132.920094,55.8119906 132.809151,56.183783 132.589906,56.5278396 C132.368019,56.8751981 132.059623,57.1301038 131.656132,57.2991604 C131.255943,57.4668962 130.753396,57.5507642 130.151792,57.5507642 C129.280094,57.5507642 128.609151,57.3506698 128.142264,56.9471792 C127.675377,56.5450094 127.394717,55.9566132 127.301604,55.1866132" id="Fill-17" fill="#F49C00" mask="url(#mask-10)"></path>
                            <polygon id="Fill-18" fill="#F49C00" mask="url(#mask-10)" points="139.211642 57.424434 139.211642 51.6850943 137.167113 51.6850943 137.167113 50.5175472 142.647585 50.5175472 142.647585 51.6850943 140.612302 51.6850943 140.612302 57.424434"></polygon>
                            <polygon id="Fill-19" fill="#F49C00" mask="url(#mask-10)" points="147.121972 57.424434 147.121972 50.5175472 152.235934 50.5175472 152.235934 51.6850943 148.521311 51.6850943 148.521311 53.2198113 151.975745 53.2198113 151.975745 54.3853774 148.521311 54.3853774 148.521311 56.2582075 152.372632 56.2582075 152.372632 57.424434"></polygon>
                            <polygon id="Fill-20" fill="#F49C00" mask="url(#mask-10)" points="157.09083 57.424434 157.09083 50.5175472 159.185547 50.5175472 160.426396 55.2293396 161.648755 50.5175472 163.748755 50.5175472 163.748755 57.424434 162.457717 57.424434 162.452434 51.9895283 161.089415 57.424434 159.745547 57.424434 158.388472 51.9895283 158.38583 57.424434"></polygon>
                            <polygon id="Fill-21" fill="#F49C00" mask="url(#mask-10)" points="168.760953 57.424434 168.760953 50.5769811 170.160292 50.5769811 170.160292 56.2582075 173.624632 56.2582075 173.624632 57.424434"></polygon>
                            <polygon id="Fill-22" fill="#F49C00" mask="url(#mask-10)" points="178.186783 57.424434 178.186783 50.5175472 183.299425 50.5175472 183.299425 51.6850943 179.584802 51.6850943 179.584802 53.2198113 183.039236 53.2198113 183.039236 54.3853774 179.584802 54.3853774 179.584802 56.2582075 183.434802 56.2582075 183.434802 57.424434"></polygon>
                            <path d="M188.174991,57.424434 L188.174991,50.5175472 L191.11433,50.5175472 C191.853292,50.5175472 192.388858,50.5796226 192.72433,50.704434 C193.058481,50.8299057 193.326594,51.0504717 193.527349,51.3648113 C193.728764,51.6837736 193.829802,52.0456604 193.829802,52.4550943 C193.829802,52.9734906 193.677255,53.4014151 193.374142,53.7395283 C193.071028,54.0776415 192.616028,54.2876415 192.012443,54.3767925 C192.312915,54.5517925 192.560557,54.7466038 192.756028,54.9572642 C192.95216,55.1659434 193.21433,55.539717 193.54716,56.0792453 L194.389142,57.424434 L192.723009,57.424434 L191.721877,55.9181132 C191.360651,55.3812264 191.115651,55.0457547 190.984236,54.9064151 C190.8515,54.7664151 190.71084,54.6693396 190.562255,54.6178302 C190.41433,54.5689623 190.180557,54.540566 189.858292,54.540566 L189.57433,54.540566 L189.57433,57.424434 L188.174991,57.424434 Z M189.57433,53.4403774 L190.605179,53.4403774 C191.275462,53.4403774 191.693481,53.4146226 191.858575,53.3578302 C192.026311,53.299717 192.155085,53.2013208 192.25084,53.0633019 C192.345934,52.9259434 192.3915,52.7529245 192.3915,52.5449057 C192.3915,52.3117925 192.330745,52.1249057 192.204613,51.980283 C192.080462,51.8369811 191.907443,51.7478302 191.680934,51.7095283 C191.56867,51.6936792 191.227915,51.6850943 190.661972,51.6850943 L189.57433,51.6850943 L189.57433,53.4403774 Z" id="Fill-23" fill="#F49C00" mask="url(#mask-10)"></path>
                            <path d="M198.663962,51.6864151 L200.064623,51.6864151 L200.064623,50.5175472 L198.663962,50.5175472 L198.663962,51.6864151 Z M198.663962,57.424434 L200.064623,57.424434 L200.064623,52.5878302 L198.663962,52.5878302 L198.663962,57.424434 Z" id="Fill-24" fill="#F49C00" mask="url(#mask-10)"></path>
                            <path d="M219.919528,18.2106321 L218.727547,26.0658208 L223.22934,26.0658208 L223.523208,24.1348774 L220.774717,24.1348774 L221.676132,18.2106321 L219.919528,18.2106321 Z M210.395566,26.0658208 L210.666321,24.2880849 L208.19783,24.2880849 L208.649528,23.8106321 L209.383208,23.1740283 C209.997358,22.6516698 210.439811,22.1728962 210.709245,21.7370472 C210.978679,21.3011981 211.150377,20.844217 211.223679,20.3661038 C211.291038,19.9144057 211.262642,19.5095943 211.142453,19.1483679 C211.020943,18.7831792 210.817547,18.5163868 210.536226,18.3394057 C210.253585,18.1657264 209.835566,18.0765755 209.277547,18.0765755 C208.747264,18.0765755 208.314057,18.1696887 207.986509,18.3552547 C207.656321,18.5368585 207.382925,18.8016698 207.166321,19.1496887 C206.949057,19.4937453 206.760849,19.9738396 206.606321,20.5893113 L208.158868,20.7656321 C208.271132,20.3205377 208.404528,20.0101604 208.559057,19.8331792 C208.713585,19.6588396 208.891887,19.5716698 209.093962,19.5716698 C209.288774,19.5716698 209.437358,19.6555377 209.540377,19.8252547 C209.643396,19.9956321 209.675755,20.2010094 209.640094,20.4394057 C209.606415,20.6599717 209.505377,20.8930849 209.336981,21.1407264 C209.167925,21.3883679 208.817925,21.7482736 208.283019,22.2244057 C207.406038,22.9996887 206.789245,23.6719528 206.428019,24.2418585 C206.064811,24.8104434 205.807925,25.4179906 205.654057,26.0658208 L210.395566,26.0658208 Z M211.291038,24.2880849 L211.020943,26.0658208 L212.704245,26.0658208 L212.975,24.2880849 L211.291038,24.2880849 Z M214.515,18.2106321 L213.318396,26.0658208 L218.108774,26.0658208 L218.379528,24.2880849 L215.353679,24.2880849 L215.586792,22.7414811 L218.31217,22.7414811 L218.556509,21.140066 L215.831132,21.140066 L216.021981,19.8873302 L218.96,19.8873302 L219.212925,18.2106321 L214.515,18.2106321 Z M204.304245,22.0725189 C204.304245,16.4579906 208.855566,11.9046887 214.468774,11.9046887 C220.084623,11.9046887 224.632642,16.4579906 224.632642,22.0725189 C224.632642,27.6870472 220.084623,32.2370472 214.468774,32.2370472 C208.855566,32.2370472 204.304245,27.6870472 204.304245,22.0725189 Z" id="Fill-25" fill="#F49C00" mask="url(#mask-10)"></path>
                        </g>
                    </g>
                </g>
            </g>
        </g>
    </g>
</svg>