<?xml version="1.0" encoding="UTF-8"?>
<svg width="25px" height="19px" viewBox="0 0 25 19" version="1.1" xmlns="http://www.w3.org/2000/svg" xmlns:xlink="http://www.w3.org/1999/xlink">
    <!-- Generator: Sketch 53.1 (72631) - https://sketchapp.com -->
    <title>Group 8</title>
    <desc>Created with Sketch.</desc>
    <defs>
        <polygon id="path-1" points="1.12119701e-05 0.0763172043 22.9863799 0.0763172043 22.9863799 16.943866 1.12119701e-05 16.943866"></polygon>
    </defs>
    <g id="iletişim" stroke="none" stroke-width="1" fill="none" fill-rule="evenodd">
        <g id="Desktop-HD" transform="translate(-471.000000, -1808.000000)">
            <g id="Group-8" transform="translate(471.000000, 1808.000000)">
                <g id="Group-3">
                    <mask id="mask-2" fill="white">
                        <use xlink:href="#path-1"></use>
                    </mask>
                    <g id="Clip-2"></g>
                    <path d="M22.9596169,10.1862812 C22.4947698,10.1550231 22.0599558,10.1257758 21.5784764,10.093421 L21.5784764,9.53424892 C21.5784764,7.41747473 21.5795219,5.30070054 21.5780012,3.18401774 C21.5772409,1.94292634 21.0584103,1.44992634 19.7573897,1.44983495 C14.2308318,1.44965215 8.70427397,1.44946935 3.17771612,1.44992634 C1.94873678,1.45010914 1.40766653,1.96367366 1.40681116,3.14425968 C1.40405496,6.72285108 1.40395992,10.3016253 1.4069062,13.8802167 C1.40785661,15.0754263 1.92336074,15.5661414 3.17457975,15.5668726 C7.35506736,15.5690661 11.53565,15.5676952 15.7162326,15.5677866 L16.3277285,15.5677866 C16.4045219,16.0289801 16.4739021,16.4455715 16.5516459,16.9123403 C16.3969186,16.9227597 16.2485591,16.9414962 16.1002946,16.9414962 C11.77715,16.94305 7.45410041,16.9463403 3.13105083,16.9406737 C1.54671198,16.9386629 0.423513636,16.1583081 0.0902987603,14.8293833 C0.0172119835,14.5377328 0.00514173554,14.2265231 0.00476157025,13.9242704 C-0.000750826446,10.3151522 -0.00122603306,6.70603387 0.00210041322,3.09691559 C0.00390619835,1.21951237 1.18973678,0.0780446237 3.13447231,0.0774962366 C8.70855083,0.0759424731 14.2826293,0.0758510753 19.8567079,0.0775876344 C21.7804393,0.0782274194 22.9730178,1.21028118 22.9811913,3.05925968 C22.9910756,5.29777581 22.9840426,7.53638333 22.982712,9.77499086 C22.9826169,9.90834032 22.9680756,10.0416898 22.9596169,10.1862812" id="Fill-1" fill="#003494" mask="url(#mask-2)"></path>
                </g>
                <path d="M7.56427984,7.80089916 C6.20013223,6.62064152 4.92527161,5.51736327 3.65004431,4.4144569 C3.2086512,4.03272095 2.7623079,3.65665619 2.32558999,3.269435 C1.95652485,2.9422726 1.90161427,2.57141417 2.15884148,2.25670979 C2.42743583,1.92787393 2.82821894,1.90946582 3.20635944,2.23328128 C5.53955514,4.23102655 7.868809,6.23332735 10.1998046,8.23358281 C10.2922084,8.31297943 10.388554,8.38763456 10.5128591,8.48869325 C11.551485,7.59543485 12.5849774,6.70533744 13.6199365,5.81672755 C14.9949929,4.636191 16.3700493,3.45574743 17.7472141,2.27781405 C18.1651396,1.92034334 18.5587724,1.91048849 18.8321336,2.23923138 C19.1108117,2.57429625 19.0426089,2.95826349 18.6267919,3.31843033 C17.3381807,4.43463145 16.0461777,5.54683485 14.7560998,6.6613625 C14.3501832,7.01213934 13.9464666,7.36524045 13.4996649,7.75404214 C14.631153,8.8319395 15.7402735,9.8884537 16.8595694,10.9547298 C16.5718159,11.3122005 16.296438,11.6540522 15.9953923,12.0279786 C14.8243026,10.9074079 13.6547713,9.78841769 12.4592056,8.64451143 C11.9829777,9.05739242 11.5367261,9.45149341 11.0824075,9.83601847 C10.6176384,10.2294687 10.3842455,10.2264007 9.92149319,9.82700035 C9.48055844,9.44638005 9.04558226,9.05887994 8.57531298,8.64581301 C8.07955931,9.1171723 7.59251433,9.57784002 7.1081278,10.0413898 C5.85315966,11.2423798 4.59965825,12.4448573 3.3450568,13.6462192 C2.89935519,14.0730458 2.5087475,14.1136738 2.19798475,13.7680103 C1.90179761,13.4384307 1.96312512,13.0431211 2.38306735,12.6421403 C3.97309089,11.1243076 5.56430615,9.60777644 7.15836319,8.09422037 C7.26845938,7.98972178 7.40550666,7.91432289 7.56427984,7.80089916" id="Fill-4" fill="#003494"></path>
                <path d="M23.5457361,15.027392 C22.8860169,14.3420434 22.2151373,13.6450557 21.5407477,12.9444591 C21.3098009,13.1745326 21.0803842,13.4029822 20.8377372,13.6448753 C21.0824543,13.9102268 21.3169111,14.1645709 21.61968,14.4928092 L18.5505905,14.4928092 L18.5505905,15.5485312 L21.5993394,15.5485312 C21.3027807,15.8676569 21.0742641,16.1134296 20.8735582,16.3293379 C21.1152153,16.6002834 21.3313115,16.8425373 21.5052866,17.0375134 C22.2095572,16.3437739 22.9017673,15.6617635 23.5457361,15.027392 M17.0000253,14.9802946 C17.0076755,12.7681595 18.806738,10.9928936 21.0337629,11.0000214 C23.2263168,11.0069687 25.0018885,12.7962195 24.9999985,14.9970764 C24.9981984,17.2093017 23.199226,19.0030637 20.9857015,18.9999961 C18.7620967,18.9969284 16.9922851,17.2120085 17.0000253,14.9802946" id="Fill-6" fill="#003494"></path>
            </g>
        </g>
    </g>
</svg>